HIERARCHY
ROOT Hips
{
	OFFSET	0.00	0.00	0.00
	CHANNELS 6 Xposition Yposition Zposition Zrotation Xrotation Yrotation
	JOINT LeftUpLeg
	{
		OFFSET	 0.126116	-0.065224	 0.014019
		CHANNELS 3 Zrotation Xrotation Yrotation
		JOINT LeftLeg
		{
			OFFSET	 0.000000	 0.569914	 0.000000
			CHANNELS 3 Zrotation Xrotation Yrotation
			JOINT LeftFoot
			{
				OFFSET	 0.000000	 0.544423	 0.000000
				CHANNELS 3 Zrotation Xrotation Yrotation
				JOINT LeftToeBase
				{
					OFFSET	 0.000000	 0.207117	 0.000000
					CHANNELS 3 Zrotation Xrotation Yrotation
					End Site
					{
						OFFSET	 0.000000	 0.207117	 0.000000
					}
				}
			}
		}
	}
	JOINT RightUpLeg
	{
		OFFSET	-0.124023	-0.065224	 0.008373
		CHANNELS 3 Zrotation Xrotation Yrotation
		JOINT RightLeg
		{
			OFFSET	 0.000000	 0.570047	 0.000000
			CHANNELS 3 Zrotation Xrotation Yrotation
			JOINT RightFoot
			{
				OFFSET	 0.000000	 0.544354	 0.000000
				CHANNELS 3 Zrotation Xrotation Yrotation
				JOINT RightToeBase
				{
					OFFSET	 0.000000	 0.207540	 0.000000
					CHANNELS 3 Zrotation Xrotation Yrotation
					End Site
					{
						OFFSET	 0.000000	 0.207540	 0.000000
					}
				}
			}
		}
	}
	JOINT Spine
	{
		OFFSET	 0.000184	 0.117403	 0.007763
		CHANNELS 3 Zrotation Xrotation Yrotation
		JOINT Spine1
		{
			OFFSET	 0.000000	 0.137269	 0.000000
			CHANNELS 3 Zrotation Xrotation Yrotation
			JOINT Spine2
			{
				OFFSET	 0.000000	 0.156879	 0.000000
				CHANNELS 3 Zrotation Xrotation Yrotation
				JOINT LeftShoulder
				{
					OFFSET	 0.080501	 0.160143	 0.002496
					CHANNELS 3 Zrotation Xrotation Yrotation
					JOINT LeftArm
					{
						OFFSET	 0.000000	 0.164363	 0.000000
						CHANNELS 3 Zrotation Xrotation Yrotation
						JOINT LeftForeArm
						{
							OFFSET	 0.000000	 0.364576	 0.000000
							CHANNELS 3 Zrotation Xrotation Yrotation
							JOINT LeftHand
							{
								OFFSET	 0.000000	 0.360812	 0.000000
								CHANNELS 3 Zrotation Xrotation Yrotation
								JOINT LeftHandIndex1
								{
									OFFSET	 0.000000	 0.086006	 0.000000
									CHANNELS 3 Zrotation Xrotation Yrotation
									JOINT LeftHandIndex2
									{
										OFFSET	 0.000000	 0.047237	 0.000000
										CHANNELS 3 Zrotation Xrotation Yrotation
										JOINT LeftHandIndex3
										{
											OFFSET	-0.004284	 0.038165	 0.000551
											CHANNELS 3 Zrotation Xrotation Yrotation
											End Site
											{
												OFFSET	-0.004284	 0.038165	 0.000551
											}
										}
									}
								}
							}
						}
					}
				}
				JOINT Neck
				{
					OFFSET	 0.000000	 0.176489	 0.000000
					CHANNELS 3 Zrotation Xrotation Yrotation
					JOINT Head
					{
						OFFSET	 0.000000	 0.077941	 0.001747
						CHANNELS 3 Zrotation Xrotation Yrotation
						End Site
						{
							OFFSET	 0.000000	 0.077941	 0.001747
						}
					}
				}
				JOINT RightShoulder
				{
					OFFSET	-0.080363	 0.159706	-0.000306
					CHANNELS 3 Zrotation Xrotation Yrotation
					JOINT RightArm
					{
						OFFSET	 0.000000	 0.164196	 0.000000
						CHANNELS 3 Zrotation Xrotation Yrotation
						JOINT RightForeArm
						{
							OFFSET	 0.000000	 0.365611	 0.000000
							CHANNELS 3 Zrotation Xrotation Yrotation
							JOINT RightHand
							{
								OFFSET	 0.000000	 0.360648	 0.000000
								CHANNELS 3 Zrotation Xrotation Yrotation
								JOINT RightHandIndex1
								{
									OFFSET	 0.000000	 0.069977	 0.000000
									CHANNELS 3 Zrotation Xrotation Yrotation
									JOINT RightHandIndex2
									{
										OFFSET	 0.000000	 0.052305	 0.000000
										CHANNELS 3 Zrotation Xrotation Yrotation
										JOINT RightHandIndex3
										{
											OFFSET	 0.009002	 0.042196	 0.000782
											CHANNELS 3 Zrotation Xrotation Yrotation
											End Site
											{
												OFFSET	 0.009002	 0.042196	 0.000782
											}
										}
									}
								}
							}
						}
					}
				}
			}
		}
	}
}
MOTION
Frames:    6
Frame Time: 0.03333334
 0.005549	 1.223420	-0.076863	 0.994987	 0.316227	 172.346600	-160.526700	 11.680530	-29.151830	 5.390898	-19.438000	 3.054016	-12.398980	 63.134730	 4.277205	 1.162021	 26.689180	-2.659656	 171.757900	 6.357143	 20.121480	-2.635072	-31.250130	 7.754672	 24.318060	 81.583150	-17.904640	-1.288988	 28.372410	 2.710516	 2.601938	 6.926609	 11.080410	-6.110545	 1.959091	 5.365570	 8.831373	-0.922308	-13.580050	-113.195100	 6.483945	 92.935060	 36.346460	 40.179810	-6.436842	 4.692148	-0.242504	-0.073833	 10.810940	 27.368860	 38.782630	 0.561448	 8.651424	-0.355720	-5.949623	 13.578030	 1.518000	 4.985984	-3.513027	-0.334715	 3.185821	-6.825675	 0.871068	-1.201365	-5.843845	-0.212467	 123.459000	 10.373590	-96.383440	-8.516144	 36.714400	-0.526690	-5.107620	-0.200850	 0.049514	 5.587084	 10.378610	 10.145700	-2.307846	 4.845531	 0.896263	 12.530490	 22.793330	-5.134069	-8.499894	 13.015610	-0.520033
 0.004900	 1.224136	-0.071991	 1.046134	 0.186944	 172.317600	-160.317600	 11.911720	-29.832050	 5.436055	-19.601540	 3.047895	-12.080010	 63.052700	 4.122071	 1.161996	 26.688850	-2.659647	 171.652900	 6.687203	 20.829680	-2.631215	-31.216470	 7.745369	 23.251650	 81.296770	-16.988360	-1.288965	 28.372110	 2.710506	 2.643352	 7.159660	 11.118450	-5.980783	 0.816506	 5.113251	 8.744625	 0.615125	-13.376180	-113.184500	 6.485438	 92.936160	 36.782700	 39.642200	-6.658448	 4.681041	-0.241755	-0.070583	 9.417985	 27.947330	 38.659140	 0.569670	 8.625928	-0.355689	-5.949517	 13.583760	 1.518615	 4.986399	-3.503921	-0.334495	 3.185520	-6.825898	 0.872798	-1.207469	-5.651896	-0.162547	 123.451900	 10.374760	-96.382670	-9.220443	 36.587860	 0.010920	-5.085524	-0.199745	 0.046357	 6.811472	 11.200410	 9.427356	-2.310817	 4.854839	 0.896142	 12.532260	 22.817880	-5.139989	-8.500073	 13.035710	-0.521301
 0.004303	 1.224805	-0.067147	 1.098484	 0.049233	 172.231800	-160.089700	 12.135020	-30.543750	 5.477987	-19.782500	 2.996815	-11.822170	 62.985090	 4.031198	 1.161922	 26.687840	-2.659616	 171.554200	 7.034626	 21.497780	-2.627479	-31.191190	 7.712536	 22.090440	 81.017440	-15.980680	-1.288893	 28.371170	 2.710476	 2.660076	 7.384856	 11.136740	-5.828962	-0.294538	 4.855270	 8.564881	 2.095787	-12.922770	-113.152000	 6.489983	 92.939590	 37.156330	 39.125850	-6.837018	 4.678736	-0.241090	-0.060786	 8.106478	 28.370110	 38.088370	 0.594943	 8.547539	-0.355571	-5.949194	 13.601380	 1.520503	 4.987674	-3.475927	-0.333819	 3.184597	-6.826585	 0.878116	-1.215299	-5.458237	-0.020618	 123.430000	 10.378310	-96.380400	-9.865662	 36.535850	 0.508851	-5.071084	-0.198840	 0.036503	 7.926362	 11.839340	 8.265802	-2.319953	 4.883456	 0.895773	 12.537690	 22.893360	-5.158201	-8.500621	 13.097500	-0.525201
 0.003740	 1.225428	-0.062177	 1.150301	-0.103487	 172.067000	-159.833200	 12.353350	-31.427960	 5.554652	-19.980170	 2.996866	-11.635560	 62.934190	 4.020748	 1.161777	 26.685890	-2.659559	 171.455600	 7.420011	 22.134450	-2.624387	-31.181760	 7.646982	 20.761570	 80.738170	-14.812970	-1.288755	 28.369350	 2.710417	 2.646437	 7.606678	 11.172260	-5.665197	-1.396131	 4.596237	 8.282105	 3.552294	-12.171340	-113.089100	 6.498840	 92.946210	 37.484540	 38.620310	-6.986184	 4.686617	-0.240386	-0.041638	 6.845932	 28.650600	 37.027070	 0.643743	 8.396134	-0.355244	-5.948573	 13.635390	 1.524151	 4.990137	-3.421865	-0.332514	 3.182813	-6.827913	 0.888387	-1.226292	-5.260416	 0.233697	 123.387900	 10.385160	-96.376000	-10.467950	 36.567770	 0.980215	-5.066424	-0.197898	 0.017575	 8.941227	 12.284750	 6.623060	-2.337597	 4.938720	 0.895072	 12.548270	 23.039140	-5.193428	-8.501668	 13.216820	-0.532735
 0.003207	 1.225969	-0.057176	 1.198442	-0.268178	 171.809400	-159.549600	 12.558360	-32.363560	 5.624204	-20.209470	 2.916772	-11.539460	 62.908190	 4.106153	 1.161553	 26.682860	-2.659470	 171.357100	 7.841376	 22.716650	-2.622343	-31.193710	 7.543607	 19.274130	 80.462980	-13.491790	-1.288541	 28.366530	 2.710326	 2.595209	 7.818004	 11.242550	-5.497848	-2.445309	 4.349651	 7.887101	 4.929388	-11.086600	-112.991400	 6.512587	 92.956470	 37.760050	 38.141220	-7.112909	 4.705283	-0.239747	-0.012053	 5.679685	 28.766520	 35.438250	 0.719623	 8.160606	-0.354476	-5.947611	 13.688300	 1.529824	 4.993962	-3.337780	-0.330490	 3.180039	-6.829978	 0.904361	-1.241796	-5.066843	 0.613558	 123.322400	 10.395830	-96.369130	-11.005440	 36.696920	 1.408877	-5.074801	-0.196841	-0.012116	 9.788166	 12.490010	 4.495022	-2.365041	 5.024676	 0.894016	 12.564950	 23.265910	-5.248361	-8.503263	 13.402440	-0.544456
 0.002657	 1.226414	-0.051995	 1.242991	-0.448231	 171.435000	-159.225200	 12.752400	-33.436080	 5.708028	-20.484940	 2.796017	-11.547870	 62.916150	 4.305631	 1.161230	 26.678480	-2.659342	 171.254500	 8.314728	 23.252150	-2.621722	-31.232540	 7.393412	 17.576570	 80.181150	-11.971220	-1.288232	 28.362470	 2.710196	 2.497457	 8.016257	 11.357010	-5.324162	-3.434684	 4.116374	 7.346250	 6.220434	-9.569939	-112.850500	 6.532447	 92.971240	 37.980410	 37.682550	-7.229475	 4.738925	-0.239123	 0.030844	 4.604296	 28.684540	 33.189110	 0.828940	 7.821070	-0.352816	-5.946233	 13.764540	 1.538000	 4.999471	-3.216598	-0.327584	 3.176043	-6.832954	 0.927382	-1.264197	-4.879783	 1.152177	 123.227900	 10.411210	-96.359250	-11.476700	 36.946560	 1.792409	-5.096583	-0.195932	-0.054794	 10.406090	 12.415080	 1.762495	-2.404597	 5.148554	 0.892567	 12.589460	 23.592780	-5.327841	-8.505500	 13.669980	-0.561357
